<?xml version="1.0" standalone="no"?>
<!DOCTYPE svg PUBLIC "-//W3C//DTD SVG 20010904//EN"
 "http://www.w3.org/TR/2001/REC-SVG-20010904/DTD/svg10.dtd">
<svg version="1.0" xmlns="http://www.w3.org/2000/svg"
 width="2286.000000pt" height="864.000000pt" viewBox="0 0 2286.000000 864.000000"
 preserveAspectRatio="xMidYMid meet">

<g transform="translate(0.000000,864.000000) scale(0.100000,-0.100000)"
fill="#000000" stroke="none">
<path d="M16540 1571 c-52 -17 -87 -41 -134 -91 -146 -156 -195 -490 -91 -625
39 -52 79 -69 160 -69 57 0 82 5 126 27 l55 26 28 166 c15 91 30 174 33 185 5
19 0 20 -85 20 l-90 0 -4 -30 -5 -30 54 0 54 0 -6 -42 c-4 -24 -14 -86 -23
-138 -17 -92 -18 -95 -52 -112 -43 -22 -111 -23 -150 -3 -92 47 -105 268 -28
467 32 85 97 167 148 188 47 19 116 8 151 -26 l29 -28 23 22 c17 17 19 26 11
40 -25 41 -145 72 -204 53z"/>
<path d="M18690 1568 c-44 -12 -104 -56 -137 -100 -100 -131 -151 -389 -107
-538 20 -69 73 -124 133 -140 166 -44 321 132 362 410 37 259 -72 419 -251
368z m129 -79 c53 -53 71 -167 47 -306 -37 -214 -124 -343 -232 -343 -112 0
-159 136 -120 350 37 200 128 330 232 330 34 0 48 -6 73 -31z"/>
<path d="M20130 1571 c-121 -39 -228 -184 -265 -356 -19 -91 -19 -218 0 -283
40 -132 177 -187 305 -122 54 27 74 54 60 79 -14 26 -22 26 -46 0 -29 -32 -69
-49 -114 -49 -57 0 -96 23 -122 73 -20 37 -23 56 -23 157 1 164 42 292 122
381 51 56 86 72 145 67 36 -4 57 -13 79 -34 l29 -28 23 22 c17 17 19 26 11 39
-26 42 -145 73 -204 54z"/>
<path d="M20901 1565 c-106 -33 -172 -161 -141 -275 12 -46 44 -81 145 -164
74 -62 92 -123 56 -202 -24 -52 -74 -84 -132 -84 -44 0 -102 27 -125 58 -9 12
-14 10 -33 -14 l-23 -29 27 -22 c14 -13 51 -30 83 -39 151 -44 286 60 286 220
-1 75 -19 112 -80 163 -126 104 -136 116 -141 169 -10 98 55 174 149 174 35 0
54 -6 76 -25 l29 -24 23 24 c30 32 16 49 -53 70 -61 18 -88 18 -146 0z"/>
<path d="M14376 1533 c-10 -50 -126 -714 -126 -723 0 -6 64 -10 155 -10 127 0
155 3 155 14 0 8 3 21 6 30 5 14 -9 16 -118 16 l-124 0 25 155 25 155 107 0
c88 0 108 3 113 16 16 41 10 44 -99 44 -122 0 -114 -15 -85 144 11 60 20 113
20 118 0 4 51 8 114 8 109 0 114 1 120 23 3 12 6 25 6 30 0 4 -65 7 -144 7
l-144 0 -6 -27z"/>
<path d="M14816 1533 c-10 -50 -126 -714 -126 -723 0 -6 13 -10 29 -10 24 0
30 5 35 28 3 15 26 146 51 292 51 302 54 314 62 307 3 -3 40 -144 82 -314 l77
-308 41 -3 c38 -3 42 -1 47 25 10 49 126 714 126 723 0 6 -13 10 -30 10 -16 0
-30 -1 -30 -3 0 -1 -25 -141 -55 -312 -30 -170 -55 -314 -55 -319 -1 -33 -25
51 -91 327 l-73 307 -42 0 c-38 0 -43 -3 -48 -27z"/>
<path d="M15416 1533 c-10 -50 -126 -714 -126 -723 0 -6 64 -10 155 -10 127 0
155 3 155 14 0 8 3 21 6 30 5 14 -9 16 -118 16 l-124 0 25 155 25 155 107 0
c88 0 108 3 113 16 16 41 10 44 -99 44 -122 0 -114 -15 -85 144 11 60 20 113
20 118 0 4 51 8 114 8 109 0 114 1 120 23 3 12 6 25 6 30 0 4 -65 7 -144 7
l-144 0 -6 -27z"/>
<path d="M15856 1534 c-11 -52 -126 -715 -126 -725 0 -6 14 -9 32 -7 l32 3 30
173 29 172 53 0 53 0 17 -57 c9 -32 31 -110 49 -173 l32 -115 35 -3 36 -3 -49
168 c-27 92 -49 176 -49 185 0 10 11 19 31 23 107 24 177 225 110 315 -37 51
-77 65 -197 69 l-112 3 -6 -28z m223 -48 c82 -43 61 -215 -33 -260 -42 -20
-176 -23 -176 -3 0 6 10 72 22 145 l23 132 68 0 c39 0 80 -6 96 -14z"/>
<path d="M16878 1338 l56 -223 -24 -140 c-13 -77 -25 -148 -28 -157 -3 -15 2
-18 30 -18 l35 0 27 157 27 157 131 216 c72 118 132 218 135 223 2 4 -13 7
-34 7 l-38 0 -105 -185 c-58 -102 -107 -185 -110 -185 -3 0 -23 83 -45 185
l-38 185 -38 0 -37 0 56 -222z"/>
<path d="M17536 1534 c-11 -52 -126 -715 -126 -725 0 -6 14 -9 32 -7 37 3 31
-13 68 206 l23 132 67 0 c126 0 199 39 246 130 27 53 26 179 -2 217 -40 53
-79 67 -195 71 l-107 4 -6 -28z m215 -44 c49 -27 64 -131 29 -207 -28 -62 -68
-83 -160 -83 l-76 0 26 150 25 150 68 0 c38 0 77 -5 88 -10z"/>
<path d="M18026 1534 c-11 -52 -126 -715 -126 -725 0 -6 14 -9 32 -7 l32 3 30
173 29 172 53 0 53 0 17 -57 c9 -32 31 -110 49 -173 l32 -115 35 -3 36 -3 -49
168 c-27 92 -49 176 -49 185 0 10 11 19 31 23 107 24 177 225 110 315 -37 51
-77 65 -197 69 l-112 3 -6 -28z m223 -48 c82 -43 61 -215 -33 -260 -42 -20
-176 -23 -176 -3 0 6 10 72 22 145 l23 132 68 0 c39 0 80 -6 96 -14z"/>
<path d="M19221 1253 c-29 -170 -61 -327 -71 -350 -21 -47 -44 -63 -94 -63
-28 0 -40 7 -65 37 -28 34 -32 36 -56 25 -25 -11 -25 -13 -10 -41 20 -41 59
-68 104 -76 81 -14 152 28 186 107 12 29 125 625 125 661 0 4 -15 7 -33 7
l-33 0 -53 -307z"/>
<path d="M19516 1533 c-10 -50 -126 -714 -126 -723 0 -6 64 -10 155 -10 127 0
155 3 155 14 0 8 3 21 6 30 5 14 -9 16 -118 16 l-124 0 25 155 25 155 107 0
c88 0 108 3 113 16 16 41 10 44 -99 44 -122 0 -114 -15 -85 144 11 60 20 113
20 118 0 4 51 8 114 8 109 0 114 1 120 23 3 12 6 25 6 30 0 4 -65 7 -144 7
l-144 0 -6 -27z"/>
<path d="M20366 1544 c-15 -39 -8 -44 64 -44 58 0 70 -3 70 -16 0 -19 -108
-640 -116 -666 -4 -15 1 -18 30 -18 30 0 35 4 40 28 8 37 116 659 116 666 0 3
34 6 75 6 41 0 75 3 75 8 0 4 3 17 6 30 l6 22 -180 0 c-155 0 -181 -2 -186
-16z"/>
</g>
</svg>
